<svg id="garbage" xmlns="http://www.w3.org/2000/svg" width="18" height="21" viewBox="0 0 18 21">
  <g id="Grupo_4578" data-name="Grupo 4578">
    <path id="Trazado_3688" data-name="Trazado 3688" d="M44.338,3.022H40.127V2.31A2.272,2.272,0,0,0,37.9,0h-4a2.272,2.272,0,0,0-2.226,2.31v.712H27.462a.583.583,0,0,0,0,1.166h1.015V17.883a3.066,3.066,0,0,0,3,3.117h8.838a3.066,3.066,0,0,0,3-3.117V4.188h1.015a.583.583,0,0,0,0-1.166ZM32.8,2.31a1.126,1.126,0,0,1,1.1-1.144h4A1.126,1.126,0,0,1,39,2.31v.712H32.8Zm9.4,15.573a1.921,1.921,0,0,1-1.881,1.951H31.481A1.921,1.921,0,0,1,29.6,17.883V4.188H42.2V17.883Z" transform="translate(-26.9)"/>
    <path id="Trazado_3689" data-name="Trazado 3689" d="M230.29,157.01a.588.588,0,0,0,.59-.59V145.99a.59.59,0,1,0-1.18,0v10.425A.591.591,0,0,0,230.29,157.01Z" transform="translate(-221.29 -139.216)"/>
    <path id="Trazado_3690" data-name="Trazado 3690" d="M142.19,170.512a.588.588,0,0,0,.59-.59V160.79a.59.59,0,0,0-1.18,0v9.131A.59.59,0,0,0,142.19,170.512Z" transform="translate(-136.844 -153.365)"/>
    <path id="Trazado_3691" data-name="Trazado 3691" d="M318.39,170.512a.588.588,0,0,0,.59-.59V160.79a.59.59,0,0,0-1.18,0v9.131A.588.588,0,0,0,318.39,170.512Z" transform="translate(-305.737 -153.365)"/>
  </g>
</svg>
