<svg xmlns="http://www.w3.org/2000/svg" width="23.2" height="19.333" viewBox="0 0 23.2 19.333">
  <path id="ic_visibility_off_24px" d="M12.605,7.07a5.186,5.186,0,0,1,5.275,5.088,4.786,4.786,0,0,1-.38,1.862l3.081,2.971A12.052,12.052,0,0,0,24.2,12.158,12.477,12.477,0,0,0,12.595,4.526a12.692,12.692,0,0,0-4.2.712l2.279,2.2A5.285,5.285,0,0,1,12.605,7.07ZM2.055,4.292,4.46,6.612l.485.468A12.061,12.061,0,0,0,1,12.158a12.477,12.477,0,0,0,11.605,7.632,12.826,12.826,0,0,0,4.621-.855l.443.427,3.091,2.971,1.34-1.292L3.395,3ZM7.889,9.919,9.525,11.5a2.774,2.774,0,0,0-.084.661,3.141,3.141,0,0,0,3.851,2.971l1.635,1.577a5.386,5.386,0,0,1-2.321.539A5.186,5.186,0,0,1,7.33,12.158a4.9,4.9,0,0,1,.559-2.239Zm4.547-.794,3.323,3.205.021-.163a3.106,3.106,0,0,0-3.165-3.053Z" transform="translate(-1 -3)"/>
</svg>
